PathFileType	4	(X/Y/Z)	C:/Users/opensim2020/Desktop/walking_exp_matlab/subject01_walking09_straight_02.trc																																																																																																																															
DataRate	CameraRate	NumFrames	NumMarkers	Units	OrigDataRate	OrigDataStartFrame	OrigNumFrames																																																																																																																											
100	100	4	43	mm	100	2207	362																																																																																																																											
Frame#	Time	LFHD			RFHD			LBHD			RBHD			C7			T10			CLAV			STRN			RBAK			LSHO			LUPA			LELB			LFRM			LWRA			LWRB			LFIN			RSHO			RUPA			RELB			RFRM			RWRA			RWRB			RFIN			LASI			RASI			LPSI			RPSI			LTHI			LKNE			LTIB			LANK			LHEE			LTOE			RTHI			RKNE			RTIB			RANK			RHEE			RTOE			*39			*40			*41			*42		
		X1	Y1	Z1	X2	Y2	Z2	X3	Y3	Z3	X4	Y4	Z4	X5	Y5	Z5	X6	Y6	Z6	X7	Y7	Z7	X8	Y8	Z8	X9	Y9	Z9	X10	Y10	Z10	X11	Y11	Z11	X12	Y12	Z12	X13	Y13	Z13	X14	Y14	Z14	X15	Y15	Z15	X16	Y16	Z16	X17	Y17	Z17	X18	Y18	Z18	X19	Y19	Z19	X20	Y20	Z20	X21	Y21	Z21	X22	Y22	Z22	X23	Y23	Z23	X24	Y24	Z24	X25	Y25	Z25	X26	Y26	Z26	X27	Y27	Z27	X28	Y28	Z28	X29	Y29	Z29	X30	Y30	Z30	X31	Y31	Z31	X32	Y32	Z32	X33	Y33	Z33	X34	Y34	Z34	X35	Y35	Z35	X36	Y36	Z36	X37	Y37	Z37	X38	Y38	Z38	X39	Y39	Z39	X40	Y40	Z40	X41	Y41	Z41	X42	Y42	Z42	X43	Y43	Z43
																																																																																																																																		
317	3.16	891.52191	1647.97192	-1478.67419	910.28253	1643.16565	-1365.68811	768.84271	1628.09961	-1468.33228	785.09918	1622.57227	-1348.20081	703.35028	1419.27234	-1439.91528	677.6571	1122.38269	-1441.54749	846.72644	1351.55188	-1440.47705	894.48322	1200.30896	-1453.89575	654.19293	1217.58484	-1371.07104	787.79602	1390.01086	-1600.40759	780.38617	1207.89209	-1692.06177	786.17133	1053.83386	-1695.54736	857.6601	959.73346	-1706.15918	964.5423	877.21484	-1669.35803	917.38068	854.20154	-1699.18298	986.41321	805.88489	-1702.60571	782.51801	1373.77905	-1287.98596	720.01099	1168.20508	-1199.72632	717.53778	1044.6394	-1206.22937	734.43219	924.98309	-1181.7218	802.96448	801.75317	-1205.14087	759.36273	805.67267	-1167.29004	790.08972	725.31903	-1170.17688	850.58441	915.82898	-1560.39832	871.41705	926.58875	-1344.82825	670.20972	929.76685	-1491.57727	684.39581	935.54358	-1346.21545	778.97369	579.84314	-1603.25378	745.55859	447.06259	-1590.44226	614.65735	308.69662	-1600.1366	478.76859	134.92169	-1554.00085	424.34134	133.07704	-1501.58545	580.89014	31.58937	-1551.68872	882.5451	599.33435	-1285.05847	927.17365	448.94293	-1316.82544	903.43219	273.77222	-1308.06458	901.53906	69.10319	-1356.64368	855.08746	30.53803	-1407.80566	1041.61023	33.99411	-1355.20959	904.57574	1679.41626	-1385.91821	-1973.1156	1023.51538	3101.93799	-2012.4198	1021.92639	3140.66113	NaN	NaN	NaN
318	3.17	898.5744	1648.76111	-1476.80725	917.23956	1643.80273	-1363.81848	775.92517	1628.8186	-1466.57043	792.06873	1623.18286	-1346.45386	710.5354	1419.74683	-1438.24463	685.50854	1122.74451	-1439.58203	853.9231	1352.30762	-1438.84204	902.09998	1201.24963	-1452.1637	661.8952	1218.08716	-1369.02979	794.84302	1390.55249	-1598.8053	787.49139	1208.50854	-1690.68152	792.46625	1054.31787	-1693.75757	863.03101	959.56873	-1704.75842	969.28412	875.95648	-1668.09436	921.92065	853.50519	-1698.07971	990.56409	804.43835	-1701.34802	789.92096	1374.68982	-1286.40161	727.70825	1169.03638	-1197.85754	725.49036	1045.38281	-1204.62769	742.6535	925.73059	-1180.24744	811.78241	802.88232	-1203.7605	767.96814	806.28546	-1166.09778	798.81152	726.08435	-1169.09473	858.70624	916.64398	-1558.30188	879.6665	926.9895	-1342.87537	678.28571	930.57562	-1489.57141	692.65686	936.37201	-1344.30054	790.01074	580.05243	-1602.91077	757.8421	447.11932	-1591.20105	624.16357	311.7327	-1600.46338	485.24915	140.29953	-1554.06409	431.77884	140.34299	-1500.92505	582.21075	32.14301	-1551.44128	888.31665	599.34583	-1284.17566	932.24121	448.47821	-1316.16321	906.33911	273.24387	-1307.78516	901.9245	68.98486	-1356.58789	855.224	30.71921	-1407.78064	1041.98975	33.36728	-1355.34546	911.56317	1680.08667	-1384.00354	-1973.13989	1023.47217	3101.87964	-2012.55884	1022.1427	3140.7854	NaN	NaN	NaN
319	3.18	905.51923	1649.5354	-1475.0791	924.13812	1644.48682	-1362.07813	782.9104	1629.48218	-1464.90967	799.06964	1623.7417	-1344.77136	717.75012	1420.24646	-1436.71228	693.28796	1123.15198	-1437.53455	861.185	1353.01453	-1437.32861	909.5791	1202.00134	-1450.41528	669.53357	1218.60156	-1366.95361	801.9809	1391.03955	-1597.26868	794.52917	1208.96924	-1689.19434	798.67139	1054.74817	-1692.10144	868.33582	959.37048	-1703.401	973.84497	874.65698	-1666.94275	926.29053	852.72009	-1697.10901	994.46198	802.91431	-1700.16724	797.23724	1375.4281	-1284.84985	735.52429	1169.99939	-1195.84399	733.40991	1046.15344	-1202.94153	751.01172	926.46454	-1178.67859	820.11615	803.65961	-1202.68909	776.78894	807.13867	-1164.77295	807.66425	726.87805	-1167.94983	866.62433	917.33496	-1556.20496	887.68604	927.35278	-1340.99353	686.02893	931.24713	-1487.67041	700.65692	937.19	-1342.39355	801.21002	580.29407	-1602.74023	770.33484	447.2623	-1592.08655	634.20465	314.95718	-1600.86682	492.47116	145.83243	-1554.08276	439.98578	147.82513	-1500.32019	583.44269	32.16718	-1550.79553	894.38531	599.22668	-1283.02222	937.04303	448.08487	-1315.37695	908.82892	272.93243	-1307.47156	902.39893	69.04539	-1356.71375	855.26941	30.72402	-1407.81628	1042.42993	33.03107	-1355.69714	918.4826	1680.79272	-1382.23267	-1973.09912	1023.42035	3102.06226	-2012.60315	1022.01483	3140.72656	NaN	NaN	NaN
320	3.19	912.44281	1650.26892	-1473.4657	930.98163	1645.19861	-1360.45215	789.84418	1630.10828	-1463.34583	806.10919	1624.34497	-1342.76501	724.94611	1420.71777	-1435.1665	700.94458	1123.56982	-1435.38855	868.60101	1353.9646	-1435.92688	917.00928	1202.78345	-1448.69519	677.01862	1219.06982	-1364.92432	809.14154	1391.4209	-1595.76563	801.41333	1209.29211	-1687.60034	804.86511	1055.0929	-1690.48645	873.51575	959.11444	-1702.12354	978.1098	873.104	-1665.79285	930.43262	851.83563	-1696.13281	998.16974	801.19879	-1699.05322	804.7821	1376.21729	-1283.33948	743.15234	1170.80969	-1193.92651	741.36432	1046.83716	-1201.14563	759.40662	927.17737	-1176.99731	828.94727	804.59125	-1201.40649	785.70807	807.96381	-1163.27625	816.97681	727.8045	-1166.78284	874.2973	918.00159	-1554.16431	895.35394	927.64899	-1339.17468	693.62646	931.80853	-1485.76501	708.48138	937.95123	-1340.58545	812.41614	580.60699	-1602.70154	783.02734	447.44513	-1592.95483	644.61108	318.14157	-1601.10889	500.31616	151.38452	-1554.10315	448.91223	155.29823	-1499.65259	585.4801	32.8743	-1550.32996	900.47455	599.34692	-1281.76416	941.09991	447.39713	-1314.39819	910.94977	272.66403	-1307.03394	902.70941	69.05647	-1356.91577	855.33832	30.73817	-1407.7948	1042.7489	32.7409	-1355.97424	925.36804	1681.50842	-1380.56201	-1973.19666	1023.43317	3101.9502	-2012.5625	1022.09497	3140.68335	NaN	NaN	NaN
